<?xml version="1.0" standalone="no"?>
<!DOCTYPE svg PUBLIC "-//W3C//DTD SVG 20010904//EN"
 "http://www.w3.org/TR/2001/REC-SVG-20010904/DTD/svg10.dtd">
<svg version="1.0" xmlns="http://www.w3.org/2000/svg"
 width="240.000000pt" height="240.000000pt" viewBox="0 0 240.000000 240.000000"
 preserveAspectRatio="xMidYMid meet">

<g transform="translate(0.000000,240.000000) scale(0.100000,-0.100000)"
fill="#000000" stroke="none">
<path d="M1082 2360 c-282 -29 -533 -155 -734 -370 -388 -414 -419 -1038 -73
-1498 66 -88 210 -219 308 -280 314 -196 707 -231 1052 -93 282 113 527 356
641 634 257 631 -63 1331 -710 1553 -138 48 -331 69 -484 54z m-121 -593 c165
-59 269 -160 331 -320 16 -39 23 -87 28 -197 8 -173 27 -226 111 -315 154
-163 379 -166 552 -6 l61 56 -32 -47 c-77 -112 -237 -211 -370 -227 -162 -20
-299 23 -444 140 l-27 22 -47 -41 c-94 -84 -227 -128 -359 -119 -162 10 -259
75 -332 224 -36 73 -38 82 -38 173 0 84 3 102 28 152 35 70 97 136 168 177 30
17 57 31 61 31 4 0 -14 -21 -40 -47 -53 -54 -72 -102 -72 -185 0 -113 67 -247
157 -312 102 -74 256 -97 368 -55 65 24 76 41 47 72 -50 55 -91 187 -92 294 0
193 -99 332 -273 384 -144 44 -282 12 -392 -92 -30 -29 -55 -49 -55 -45 0 4
12 28 27 54 64 109 208 214 339 247 83 21 211 13 295 -18z m-113 -1223 c34
-10 29 -38 -6 -31 -27 5 -62 -6 -51 -17 3 -3 23 -11 44 -18 46 -15 60 -52 29
-75 -20 -15 -82 -17 -103 -4 -25 16 -2 29 40 24 32 -5 41 -3 37 8 -2 7 -18 17
-35 21 -39 10 -56 31 -48 58 10 31 49 45 93 34z m450 0 c34 -10 29 -38 -6 -31
-27 5 -62 -6 -51 -17 3 -3 23 -11 44 -18 46 -15 60 -52 29 -75 -20 -15 -82
-17 -103 -4 -25 16 -2 29 40 24 32 -5 41 -3 37 8 -2 7 -18 17 -35 21 -39 10
-56 31 -48 58 10 31 49 45 93 34z m272 -3 c0 -5 -10 -12 -22 -15 l-23 -7 25
-10 c24 -10 24 -11 6 -25 -13 -9 -20 -26 -20 -51 -1 -28 -6 -39 -18 -41 -16
-3 -18 5 -18 71 0 40 3 77 7 80 10 10 63 8 63 -2z m60 -28 c24 -21 26 -33 5
-33 -10 0 -15 -10 -15 -30 0 -20 5 -30 15 -30 8 0 15 -7 15 -15 0 -18 -41 -20
-58 -3 -7 7 -12 38 -12 70 0 63 12 73 50 41z m-605 -63 l0 -55 -52 -3 c-44 -2
-54 1 -67 20 -37 53 -2 100 72 96 l47 -3 0 -55z m155 -1 l0 -59 -49 0 c-56 0
-81 17 -81 57 0 43 25 62 81 61 l49 0 0 -59z m266 53 c13 -8 34 -46 34 -61 0
-22 -41 -51 -70 -51 -34 0 -70 31 -70 60 0 43 69 77 106 52z"/>
<path d="M934 466 c-10 -26 4 -48 28 -44 17 2 23 10 23 28 0 18 -6 26 -23 28
-13 2 -25 -3 -28 -12z"/>
<path d="M1091 467 c-17 -21 -3 -49 23 -45 15 2 21 10 21 28 0 28 -26 38 -44
17z"/>
<path d="M1384 466 c-10 -26 4 -48 28 -44 17 2 23 10 23 28 0 18 -6 26 -23 28
-13 2 -25 -3 -28 -12z"/>
</g>
</svg>
